<?xml version="1.0" encoding="utf-8"?>
<svg version="1.1" xmlns="http://www.w3.org/2000/svg" xmlns:xlink="http://www.w3.org/1999/xlink" x="0px" y="0px"
	 width="14px" height="14px" viewBox="0 0 14 14" style="enable-background:new 0 0 14 14" xml:space="preserve">
    <path fill="#fff" stroke="#808080" stroke-width="0.2px"
          d="M13,7a6,6,0,0,1-6,6.06A6,6,0,0,1,1,7,6,6,0,0,1,7,.94,6,6,0,0,1,13,7Z" transform="translate(-0.79 -0.69)"/>
    <path fill="#808080" stroke="#fff" stroke-width="0.1px"
          d="M6.39,6.29v1L4.6,5.47a.14.14,0,0,1,0-.21L6.39,3.47v1a.15.15,0,0,0,.15.14H9.3a.15.15,0,0,1,.14.15V6a.15.15,0,0,1-.14.15H6.54A.15.15,0,0,0,6.39,6.29ZM7.46,7.85H4.7A.15.15,0,0,0,4.56,8V9.27a.15.15,0,0,0,.14.15H7.46a.15.15,0,0,1,.15.14v1L9.4,8.74a.14.14,0,0,0,0-.21L7.61,6.74v1A.15.15,0,0,1,7.46,7.85Z" transform="translate(-0.79 -0.69)"/>
</svg>
