<?xml version="1.0" encoding="utf-8"?>
<svg version="1.1" xmlns="http://www.w3.org/2000/svg" xmlns:xlink="http://www.w3.org/1999/xlink" x="0px" y="0px"
	 width="14px" height="14px" viewBox="0 0 14 14" style="enable-background:new 0 0 14 14" xml:space="preserve">
    <path fill="#fff" stroke="#808080" stroke-width="0.2px"
          d="M13,7a6,6,0,0,1-6,6.06A6,6,0,0,1,1,7,6,6,0,0,1,7,.94,6,6,0,0,1,13,7Z" transform="translate(-0.79 -0.69)"/>
    <path fill="#808080" stroke="#fff" stroke-width="0.1px"
          d="M6,7.59h.85L5.25,9.32a.11.11,0,0,1-.17,0h0L3.5,7.59h.85a.14.14,0,0,0,.13-.15V4.78a.13.13,0,0,1,.13-.14H5.72a.13.13,0,0,1,.13.14V7.44A.14.14,0,0,0,6,7.59Zm3.68,0h.85L8.93,9.32a.11.11,0,0,1-.17,0h0L7.18,7.59H8a.14.14,0,0,0,.13-.15V4.78a.13.13,0,0,1,.13-.14H9.4a.13.13,0,0,1,.13.14V7.44a.14.14,0,0,0,.12.15Z" transform="translate(-0.7 -0.5)"/>
</svg>
