<?xml version="1.0" encoding="iso-8859-1"?>
<!-- Generator: Adobe Illustrator 19.0.0, SVG Export Plug-In . SVG Version: 6.00 Build 0)  -->
<svg version="1.1" id="Capa_1" xmlns="http://www.w3.org/2000/svg" xmlns:xlink="http://www.w3.org/1999/xlink" x="0px" y="0px"
	 viewBox="0 0 512 512" style="enable-background:new 0 0 512 512;" xml:space="preserve">
<path style="fill:#303C42;" d="M376.417,237.059c17.995-24.664,28.75-54.927,28.75-87.725C405.167,66.99,338.167,0,255.833,0
	S106.5,66.99,106.5,149.333c0,32.943,10.854,63.327,28.993,88.049c-7.844,28.16-50.16,182.602-50.16,242.617
	c0,4.313,2.604,8.208,6.583,9.854c3.958,1.656,8.563,0.74,11.625-2.313c20.042-20.052,50.375-32.792,63.646-37.708l48.625,58.333
	c2.063,2.479,5.083,3.833,8.188,3.833c1.188,0,2.396-0.198,3.563-0.615c4.208-1.49,7.042-5.438,7.104-9.896
	c0.857-59.549,7.432-154.095,21.333-191.987c13.901,37.892,20.477,132.438,21.333,191.987c0.063,4.458,2.896,8.406,7.104,9.896
	c1.167,0.417,2.375,0.615,3.563,0.615c3.104,0,6.125-1.354,8.188-3.833l48.625-58.344c13.25,4.896,43.521,17.594,63.646,37.719
	c3.063,3.063,7.688,3.99,11.625,2.313c3.979-1.646,6.583-5.542,6.583-9.854C426.667,419.792,384.061,264.491,376.417,237.059z"/>
<circle style="fill:#FFCA28;" cx="255.829" cy="149.333" r="128"/>
<path style="opacity:0.3;fill:#FFFFFF;enable-background:new    ;" d="M159.917,181.417c0-70.583,57.417-128,128-128
	c27.111,0,52.234,8.53,72.953,22.964c-23.145-33.223-61.564-55.047-105.036-55.047c-70.583,0-128,57.417-128,128
	c0,43.473,21.824,81.892,55.047,105.036C168.447,233.651,159.917,208.527,159.917,181.417z"/>
<g>
	<path style="fill:#7CB342;" d="M214.063,472.75l-35.208-42.25c-2.771-3.302-7.188-4.594-11.333-3.365
		c-1.583,0.49-31.813,9.938-59.208,28.927c6.84-58.76,33.023-158.848,44.013-199.335c22.882,22.061,52.727,36.884,85.904,40.806
		C221.258,338.139,215.794,424.673,214.063,472.75z"/>
	<path style="fill:#7CB342;" d="M344.479,427.135c-4.167-1.229-8.583,0.063-11.333,3.365l-35.208,42.25
		c-1.732-48.096-7.199-134.68-24.186-175.264c33.178-3.993,63.016-18.872,85.858-41.001
		c10.952,40.329,37.225,140.698,44.078,199.589C376.292,437.073,346.063,427.625,344.479,427.135z"/>
</g>
<linearGradient id="SVGID_1_" gradientUnits="userSpaceOnUse" x1="-36.4993" y1="636.3089" x2="-26.5379" y2="626.3485" gradientTransform="matrix(21.3333 0 0 -21.3333 996.3334 13791.667)">
	<stop  offset="0" style="stop-color:#000000;stop-opacity:0.1"/>
	<stop  offset="1" style="stop-color:#000000;stop-opacity:0"/>
</linearGradient>
<path style="fill:url(#SVGID_1_);" d="M359.609,256.484c-22.842,22.129-52.68,37.008-85.858,41.001
	c9.564,22.85,15.393,60.263,19.043,97.197l38.29,38.29l2.061-2.473c2.75-3.302,7.167-4.594,11.333-3.365
	c1.583,0.49,31.813,9.938,59.208,28.938C396.835,397.182,370.561,296.814,359.609,256.484z M228.656,330.544
	c2.712-12.561,5.819-24.03,9.573-33.01c-26.819-3.171-51.246-13.725-71.792-29.207L228.656,330.544z"/>
<path style="fill:#303C42;" d="M223.625,164.012c-0.604,1.677-1.042,3.208-1.438,3.938c-2.083,2.531-4.625,4.802-7.125,7.083
	c-7.583,6.958-17.042,15.615-17.25,30.083c-0.146,10.031,3.896,16.26,7.292,19.719c5.208,5.281,12.688,8.073,21.646,8.073
	c9.813,0,16.063-3.333,20.625-5.76c7.417-3.958,9.833-3.958,17.25,0c4.563,2.427,10.792,5.76,20.604,5.76
	c8.938,0,16.438-2.792,21.646-8.063c3.396-3.448,7.438-9.677,7.313-19.729c-0.208-14.469-9.667-23.125-17.25-30.083
	c-2.5-2.281-5.042-4.552-6.875-6.76c-0.646-1.052-1.083-2.583-1.688-4.26c-3.146-8.802-9.709-27.104-32.375-27.104
	C233.333,136.908,226.771,155.21,223.625,164.012z"/>
<path style="fill:#6D4C41;" d="M243.708,171.21c3.542-9.885,5.708-12.969,12.292-12.969c6.583,0,8.75,3.083,12.292,12.969
	c1.354,3.781,2.646,7.365,5.063,10.302c2.708,3.292,5.938,6.292,9.167,9.26c6.354,5.823,10.25,9.646,10.333,14.635
	c0.021,1.469-0.167,3.438-1.167,4.448c-1.063,1.073-3.479,1.719-6.458,1.719c-4.479,0-6.896-1.292-10.563-3.25
	c-4.479-2.385-10.042-5.365-18.667-5.365c-8.604,0-14.188,2.979-18.667,5.365c-3.667,1.958-6.104,3.25-10.583,3.25
	c-2.979,0-5.396-0.646-6.438-1.719c-1-1.01-1.188-2.969-1.167-4.427c0.083-5.01,3.979-8.833,10.333-14.656
	c3.229-2.969,6.458-5.969,9.167-9.26C241.063,178.575,242.354,174.991,243.708,171.21z"/>
<path style="fill:#303C42;" d="M293.604,145.627c-0.5,2.698-0.75,5.302-0.75,7.729c-0.021,8.094,2.5,15.083,7.104,19.698
	c3.583,3.583,8.271,5.552,13.25,5.552c12.458,0,24.208-12.479,27.375-29.031c0-0.021,0-0.042,0-0.052
	c0.5-2.698,0.75-5.313,0.75-7.771c0-14.604-8.563-25.208-20.354-25.208C308.521,116.544,296.771,129.023,293.604,145.627z"/>
<path style="fill:#6D4C41;" d="M314.563,149.575c1-5.229,3.417-8.833,5.188-10.583c0.146,0.719,0.25,1.635,0.25,2.76
	c0,1.229-0.125,2.531-0.375,3.875c-1.021,5.208-3.417,8.802-5.188,10.531c-0.146-0.719-0.25-1.635-0.25-2.771
	C314.188,152.158,314.313,150.866,314.563,149.575z"/>
<path style="fill:#303C42;" d="M282.25,131.085c14.438,0,27.854-13.979,31.208-32.521c0.438-2.375,0.646-4.688,0.708-6.906
	c0.229-9.271-2.563-17.385-7.875-22.844c-4.146-4.24-9.625-6.573-15.458-6.573c-14.438,0-27.854,13.979-31.229,32.615
	c-0.396,2.344-0.625,4.625-0.688,6.833c-0.208,9.281,2.583,17.396,7.917,22.844C270.958,128.762,276.438,131.085,282.25,131.085z"/>
<path style="fill:#6D4C41;" d="M280.625,98.564c1.646-9.146,7.625-14.99,10.208-15.01c0.542,0.313,2.125,2.771,2,7.573
	c-0.021,1.156-0.146,2.375-0.375,3.615c0,0.01,0,0.021,0,0.031c-1.646,9.146-7.625,14.979-10.188,15
	c-0.563-0.313-2.146-2.792-2.021-7.573C280.271,101.002,280.417,99.762,280.625,98.564z"/>
<path style="fill:#303C42;" d="M171.417,149.575c3.167,16.552,14.917,29.031,27.375,29.031c4.979,0,9.667-1.969,13.25-5.552
	c4.604-4.615,7.125-11.604,7.104-19.667c0-2.458-0.25-5.063-0.75-7.813c-3.167-16.552-14.917-29.031-27.375-29.031
	c-11.792,0-20.354,10.604-20.354,25.208c0,2.458,0.25,5.073,0.75,7.771C171.417,149.533,171.417,149.554,171.417,149.575z"/>
<path style="fill:#6D4C41;" d="M192.25,138.991c1.771,1.74,4.188,5.333,5.188,10.531c0.25,1.344,0.375,2.635,0.375,3.896
	c0,1.115-0.104,2.031-0.25,2.74c-1.771-1.729-4.167-5.323-5.188-10.531c-0.25-1.344-0.375-2.646-0.375-3.875
	C192,140.627,192.104,139.71,192.25,138.991z"/>
<path style="fill:#303C42;" d="M229.75,131.085c5.813,0,11.292-2.323,15.417-6.552c5.333-5.448,8.125-13.563,7.917-22.854
	c-0.063-2.198-0.292-4.479-0.708-6.906c-3.354-18.552-16.771-32.531-31.208-32.531c-5.833,0-11.313,2.333-15.458,6.573
	c-5.313,5.458-8.104,13.573-7.875,22.833c0.063,2.229,0.271,4.542,0.708,6.917C201.896,117.106,215.313,131.085,229.75,131.085z"/>
<path style="fill:#6D4C41;" d="M221.167,83.575c2.583,0,8.563,5.844,10.188,14.906c0.229,1.281,0.375,2.521,0.396,3.708
	c0.125,4.792-1.458,7.271-2,7.563c-2.583,0-8.563-5.833-10.208-14.979c0-0.01,0-0.021,0-0.031c-0.229-1.24-0.354-2.458-0.375-3.625
	C219.042,86.325,220.625,83.866,221.167,83.575z"/>
<linearGradient id="SVGID_2_" gradientUnits="userSpaceOnUse" x1="-43.3188" y1="637.5873" x2="-24.4182" y2="628.7735" gradientTransform="matrix(21.3333 0 0 -21.3333 996.3334 13791.667)">
	<stop  offset="0" style="stop-color:#FFFFFF;stop-opacity:0.2"/>
	<stop  offset="1" style="stop-color:#FFFFFF;stop-opacity:0"/>
</linearGradient>
<path style="fill:url(#SVGID_2_);" d="M376.417,237.059c17.995-24.664,28.75-54.927,28.75-87.725C405.167,66.99,338.167,0,255.833,0
	S106.5,66.99,106.5,149.333c0,32.943,10.854,63.327,28.993,88.049c-7.844,28.16-50.16,182.602-50.16,242.617
	c0,4.313,2.604,8.208,6.583,9.854c3.958,1.656,8.563,0.74,11.625-2.313c20.042-20.052,50.375-32.792,63.646-37.708l48.625,58.333
	c2.063,2.479,5.083,3.833,8.188,3.833c1.188,0,2.396-0.198,3.563-0.615c4.208-1.49,7.042-5.438,7.104-9.896
	c0.857-59.549,7.432-154.095,21.333-191.987c13.901,37.892,20.477,132.438,21.333,191.987c0.063,4.458,2.896,8.406,7.104,9.896
	c1.167,0.417,2.375,0.615,3.563,0.615c3.104,0,6.125-1.354,8.188-3.833l48.625-58.344c13.25,4.896,43.521,17.594,63.646,37.719
	c3.063,3.063,7.688,3.99,11.625,2.313c3.979-1.646,6.583-5.542,6.583-9.854C426.667,419.792,384.061,264.491,376.417,237.059z"/>
<g>
</g>
<g>
</g>
<g>
</g>
<g>
</g>
<g>
</g>
<g>
</g>
<g>
</g>
<g>
</g>
<g>
</g>
<g>
</g>
<g>
</g>
<g>
</g>
<g>
</g>
<g>
</g>
<g>
</g>
</svg>
