<?xml version="1.0" encoding="utf-8"?>
<svg version="1.1" id="Layer_1" xmlns="http://www.w3.org/2000/svg" xmlns:xlink="http://www.w3.org/1999/xlink" x="0px" y="0px"
	 viewBox="0 0 512 512" style="enable-background:new 0 0 512 512;" xml:space="preserve">
<path d="M418.1,121.1L335.3,204h66.3c20.1,17.6,7.8,40-9.6,40H280.9c-7.7,0-13.9-6.2-13.9-13.9V109.4c17.6-20.1,40-7.8,40,9.6v56.7
	l82.9-82.9c7.8-7.8,20.5-7.8,28.3,0C426,100.7,426,113.3,418.1,121.1z M206,390c0,17.5,22.4,29.7,40,9.6V278.8
	c0-7.6-6.2-13.8-13.8-13.8H111.4c-20.1,17.6-7.8,40,9.6,40h56.7l-89.6,89.6C86.9,412.9,97.9,422,109,422c5.1,0,10.2-2,14.1-5.9
	l82.9-82.9V390z M492,352c11,0,20-9,20-20V80c0-44.1-35.9-80-80-80H80C35.9,0,0,35.9,0,80v352c0,44.1,35.9,80,80,80h352
	c44.1,0,80-35.9,80-80c0-11-9-20-20-20s-20,9-20,20c0,22.1-17.9,40-40,40H80c-22.1,0-40-17.9-40-40V80c0-22.1,17.9-40,40-40h352
	c22.1,0,40,17.9,40,40v252C472,343,481,352,492,352z"/>
</svg>
