<?xml version="1.0" encoding="utf-8"?>
<svg version="1.1" id="Layer_1" xmlns="http://www.w3.org/2000/svg" xmlns:xlink="http://www.w3.org/1999/xlink" x="0px" y="0px"
	 viewBox="0 0 512 512" style="enable-background:new 0 0 512 512;" xml:space="preserve">
<path d="M359.7,123.5L442.9,41l-66.3-0.3c-20-17.7-7.6-40,9.8-40l111.1,0.5c7.7,0,13.9,6.3,13.8,14l-0.6,120.7
	c-17.7,20-40,7.6-40-9.8l0.3-56.7l-83.3,82.5c-7.8,7.8-20.5,7.7-28.3-0.1C351.7,143.9,351.8,131.3,359.7,123.5z M373.7,157.8
	c-5.2,0-10.4-2-14.3-6c-3.8-3.9-5.8-8.9-5.8-14.3c0-5.4,2.2-10.4,6-14.2l83-82.3l-66-0.3l0,0c-9.1-8-12.5-18.2-9-27.2
	c3-7.8,10.5-13,18.8-13c0,0,0.1,0,0.1,0l111.1,0.5c7.7,0,14,6.4,14,14.1L510.9,136l0,0c-8,9.1-18.2,12.5-27.2,9
	c-7.8-3-13-10.6-13-18.9l0.3-56.4L387.9,152C384,155.9,378.8,157.8,373.7,157.8z M376.7,40.6l66.6,0.3l-0.2,0.2l-83.2,82.5
	c-3.8,3.7-5.9,8.7-6,14c0,5.3,2,10.3,5.7,14.1c7.7,7.8,20.3,7.9,28.1,0.1l83.5-82.7l0,0.3l-0.3,56.7c0,8.2,5.1,15.7,12.8,18.7
	c8.9,3.4,18.9,0.1,26.9-8.9l0.6-120.7c0-7.6-6.1-13.8-13.7-13.8L386.4,0.9c0,0-0.1,0-0.1,0c-8.2,0-15.6,5.1-18.6,12.8
	C364.4,22.6,367.7,32.6,376.7,40.6z M41.6,385.3c-0.1-17.5-22.6-29.5-40.1-9.3l1,120.8c0.1,7.6,6.3,13.7,13.9,13.7l120.8-1
	c20-17.8,7.5-40.1-9.9-39.9l-56.7,0.5l88.9-90.3c1-18.3-10-27.3-21.1-27.2c-5.1,0-10.2,2.1-14.1,6l-82.2,83.6L41.6,385.3z
	 M16.3,510.7c-7.6,0-13.9-6.2-13.9-13.8L1.4,376l0,0c7.9-9.2,18.1-12.7,27.1-9.4c7.8,2.9,13.1,10.4,13.2,18.8l0.5,56.5l82-83.4
	c3.8-3.9,8.8-6,14.1-6.1c0.1,0,0.1,0,0.2,0c5.6,0,10.7,2.2,14.6,6.2c3.3,3.5,7.2,10,6.5,21.1l0,0l0,0L70.9,470l56.4-0.5
	c0.1,0,0.1,0,0.2,0c8.3,0,15.8,5.2,18.8,12.9c3.5,9,0.1,19.2-8.9,27.2l0,0h0l-120.8,1C16.4,510.7,16.4,510.7,16.3,510.7z M1.7,376.1
	l1,120.7c0,3.6,1.5,7.1,4.1,9.6c2.6,2.5,6,3.9,9.6,3.9c0,0,0.1,0,0.1,0l120.7-1c8.9-8,12.2-18,8.8-26.9
	c-2.9-7.6-10.4-12.8-18.5-12.8c-0.1,0-0.1,0-0.2,0l-57,0.5l0.2-0.2l88.8-90.3c0.6-11-3.2-17.4-6.5-20.9c-3.8-4-8.9-6.2-14.4-6.2
	c-0.1,0-0.1,0-0.2,0c-5.3,0-10.2,2.2-14,6L42,442.4l-0.5-57.1c-0.1-8.2-5.3-15.7-13-18.5C19.5,363.5,9.5,367,1.7,376.1z
	 M341.5,293.6c3.8,0,6.9-3.1,6.9-6.9v-86.4c0-15.1-12.3-27.4-27.4-27.4H200.3c-15.1,0-27.4,12.3-27.4,27.4v120.7
	c0,15.1,12.3,27.4,27.4,27.4h120.7c15.1,0,27.4-12.3,27.4-27.4c0-3.8-3.1-6.9-6.9-6.9s-6.9,3.1-6.9,6.9c0,7.6-6.1,13.7-13.7,13.7
	H200.3c-7.6,0-13.7-6.1-13.7-13.7V200.4c0-7.6,6.1-13.7,13.7-13.7h120.7c7.6,0,13.7,6.1,13.7,13.7v86.4
	C334.6,290.6,337.7,293.6,341.5,293.6z M357.4,321.1c0-8.7-7.1-15.9-15.9-15.9s-15.9,7.1-15.9,15.9c0,2.6-2.1,4.7-4.7,4.7H200.3
	c-2.6,0-4.7-2.1-4.7-4.7V200.4c0-2.6,2.1-4.7,4.7-4.7h120.7c2.6,0,4.7,2.1,4.7,4.7v86.4c0,8.7,7.1,15.9,15.9,15.9
	s15.9-7.1,15.9-15.9v-86.4c0-20.1-16.3-36.4-36.4-36.4H200.3c-20.1,0-36.4,16.3-36.4,36.4v120.7c0,20.1,16.3,36.4,36.4,36.4h120.7
	C341,357.5,357.4,341.2,357.4,321.1z"/>
</svg>
