<?xml version="1.0" encoding="utf-8"?>
<!-- Generator: Adobe Illustrator 16.0.4, SVG Export Plug-In . SVG Version: 6.00 Build 0)  -->
<!DOCTYPE svg PUBLIC "-//W3C//DTD SVG 1.1//EN" "http://www.w3.org/Graphics/SVG/1.1/DTD/svg11.dtd">
<svg version="1.1" id="Layer_1" xmlns="http://www.w3.org/2000/svg" xmlns:xlink="http://www.w3.org/1999/xlink" x="0px" y="0px"
	 width="174px" height="62px" viewBox="0 0 174 62" enable-background="new 0 0 174 62" xml:space="preserve">
<g>
	<g>
		<path fill="#43AB00" d="M51.573,46.782c-0.254-0.254-0.67-0.254-0.924,0l-6.32,6.32c-0.254,0.254-0.694,0.641-0.979,0.861
			c0,0-0.962,0.744-1.911,1.148c-1.012,0.432-2.355,0.614-2.355,0.614c-0.356,0.048-0.941,0.087-1.3,0.087h-12.89
			c-0.359,0-0.943-0.042-1.299-0.094c0,0-1.536-0.225-2.619-0.723c-0.847-0.391-1.653-1.027-1.653-1.027
			c-0.282-0.224-0.72-0.613-0.974-0.867l-9.113-9.113c-0.254-0.254-0.644-0.691-0.867-0.975c0,0-0.643-0.814-1.035-1.666
			c-0.494-1.08-0.716-2.604-0.716-2.604c-0.052-0.355-0.094-0.94-0.094-1.299V24.555c0-0.359,0.039-0.944,0.085-1.3
			c0,0,0.168-1.275,0.577-2.26c0.407-0.983,1.19-2.004,1.19-2.004c0.219-0.285,0.605-0.726,0.859-0.98l9.113-9.112
			c0.254-0.254,0.693-0.643,0.977-0.864c0,0,0.899-0.703,1.808-1.102c1.04-0.457,2.461-0.656,2.461-0.656
			c0.355-0.05,0.94-0.09,1.299-0.09h12.89c0.359,0,0.944,0.039,1.3,0.085c0,0,1.275,0.168,2.259,0.576
			c0.984,0.408,2.005,1.191,2.005,1.191c0.285,0.219,0.726,0.605,0.98,0.859l5.822,5.821c0.254,0.254,0.67,0.254,0.924,0l2.77-2.77
			c0.254-0.254,0.254-0.67,0-0.924l-7.352-7.353c-0.254-0.254-0.695-0.641-0.98-0.859c0,0-1.021-0.783-2.005-1.19
			c-0.984-0.408-2.26-0.576-2.26-0.576c-0.356-0.047-0.941-0.085-1.3-0.085H22.731c-0.359,0-0.944,0.038-1.3,0.085
			c0,0-1.275,0.168-2.259,0.576c-0.984,0.407-2.005,1.19-2.005,1.19c-0.285,0.219-0.726,0.605-0.98,0.859L4.013,15.846
			c-0.254,0.254-0.644,0.693-0.865,0.976c0,0-0.669,0.853-1.063,1.729c-0.478,1.062-0.689,2.541-0.689,2.541
			c-0.051,0.355-0.093,0.94-0.093,1.299v17.217c0,0.359,0.038,0.944,0.085,1.301c0,0,0.168,1.275,0.576,2.26
			c0.408,0.982,1.191,2.004,1.191,2.004c0.218,0.285,0.605,0.727,0.859,0.98l12.174,12.174c0.254,0.254,0.694,0.643,0.977,0.863
			c0,0,0.909,0.709,1.824,1.107c1.036,0.455,2.444,0.65,2.444,0.65c0.356,0.049,0.941,0.09,1.3,0.09h17.217
			c0.359,0,0.944-0.038,1.3-0.084c0,0,1.23-0.16,2.197-0.551c1.008-0.41,2.067-1.219,2.067-1.219
			c0.286-0.218,0.727-0.604,0.981-0.857l7.85-7.852c0.254-0.254,0.254-0.67,0-0.924L51.573,46.782z"/>
	</g>
	<path fill="#464646" d="M41.832,37.185c-0.25-0.26-0.664-0.262-0.916-0.004c0,0-3.276,5.447-9.605,5.447
		c-6.473,0-11.738-5.439-11.738-12.125c0-6.686,5.266-12.124,11.738-12.124c6.82,0,9.605,5.445,9.605,5.445
		c0.252,0.258,0.666,0.257,0.916-0.003l3.751-3.873c0.251-0.261,0.237-0.67-0.03-0.911c0,0-4.722-7.328-14.242-7.328
		c-10.049,0-18.197,8.415-18.197,18.794c0,10.381,8.148,18.793,18.197,18.793c9.667,0,14.242-7.328,14.242-7.328
		c0.269-0.24,0.283-0.65,0.031-0.91L41.832,37.185z"/>
	<g>
		<path fill="#464646" d="M73.969,34.423c-1.199,5.445-5.447,8.658-11.6,8.658c-7.408,0-12.746-4.738-12.746-12.308
			c0-7.569,5.393-13.017,12.582-13.017c7.842,0,11.873,5.447,11.873,11.982v2.068H56.051c0.217,3.922,2.994,6.319,6.535,6.319
			c3.214,0,5.174-1.418,6.099-4.248L73.969,34.423z M67.705,28.376c-0.107-3.104-1.905-5.826-5.557-5.826
			c-3.593,0-5.607,2.613-5.988,5.826H67.705z"/>
		<path fill="#464646" d="M144.56,25.492c-1.254-0.708-2.342-1.034-3.922-1.034c-3.375,0-5.664,2.396-5.664,6.752v11.872h-6.533
			V19.065h6.533v4.574c0.873-2.723,3.377-5.227,6.699-5.227c1.471,0,2.668,0.38,3.377,0.979L144.56,25.492z"/>
		<path fill="#464646" d="M124.12,34.423c-1.197,5.445-5.444,8.658-11.599,8.658c-7.408,0-12.746-4.738-12.746-12.308
			c0-7.569,5.393-13.017,12.582-13.017c7.842,0,11.874,5.447,11.874,11.982v2.068h-18.028c0.217,3.922,2.996,6.319,6.535,6.319
			c3.215,0,5.174-1.418,6.1-4.248L124.12,34.423z M117.857,28.376c-0.107-3.104-1.904-5.826-5.555-5.826
			c-3.594,0-5.609,2.613-5.99,5.826H117.857z"/>
		<rect x="89.031" y="12.344" fill="#464646" width="6.536" height="30.737"/>
		<rect x="78.287" y="12.344" fill="#464646" width="6.535" height="30.737"/>
		<path fill="#464646" d="M166.3,18.413v11.995c0,3.863-2.025,7.089-5.275,7.089c-3.145,0-4.586-2.078-4.586-5.704V18.413h-6.396
			v14.661c0,5.225,2.291,9.488,8.582,9.488c3.52,0,6.504-1.031,7.676-3.697v2.166c0,3.305-1.41,6.865-5.635,6.865
			c-1.613,0-4.023-1.229-4.877-3.443l-6.529,0.715c1.604,4.646,5.922,7.18,10.256,7.523c6.713,0.533,13.184-2.924,13.184-15.168
			v-19.11H166.3z"/>
	</g>
</g>
</svg>
